<svg version="1.1" id="Layer_1" xmlns="http://www.w3.org/2000/svg" xmlns:xlink="http://www.w3.org/1999/xlink" x="0px" y="0px" viewBox="0 0 256 256" style="enable-background:new 0 0 256 256;" xml:space="preserve">
                            <style type="text/css">
                                .st1{fill:#EC0000;}
                            </style>
                            <g transform="translate(1.4065934065934016 1.4065934065934016) scale(2.81 2.81)">
                                <path class="st1" d="M72.2,86.5L4.4,18.7c-2-2-2-5.3,0-7.3l7.8-7.8c2-2,5.3-2,7.3,0l67.8,67.8c2,2,2,5.3,0,7.3l-7.8,7.8
                                    C77.5,88.5,74.2,88.5,72.2,86.5z"/>
                            </g>
                            <g transform="translate(1.4065934065934016 1.4065934065934016) scale(2.81 2.81)">
                            <path class="st1" d="M4.4,71.4L72.2,3.6c2-2,5.3-2,7.3,0l7.8,7.8c2,2,2,5.3,0,7.3L19.5,86.5c-2,2-5.3,2-7.3,0l-7.8-7.8
                                C2.4,76.7,2.4,73.4,4.4,71.4z"/>
                        </g>
                        </svg>